<?xml version="1.0" encoding="UTF-8" standalone="no"?>
<svg
   xmlns:dc="http://purl.org/dc/elements/1.1/"
   xmlns:cc="http://creativecommons.org/ns#"
   xmlns:rdf="http://www.w3.org/1999/02/22-rdf-syntax-ns#"
   xmlns:svg="http://www.w3.org/2000/svg"
   xmlns="http://www.w3.org/2000/svg"
   xmlns:sodipodi="http://sodipodi.sourceforge.net/DTD/sodipodi-0.dtd"
   xmlns:inkscape="http://www.inkscape.org/namespaces/inkscape"
   inkscape:version="1.0 (4035a4fb49, 2020-05-01)"
   sodipodi:docname="Maps.svg"
   id="svg8"
   version="1.1"
   viewBox="0 0 210 297"
   height="297mm"
   width="210mm">
  <defs
     id="defs2">
    <inkscape:path-effect
       lpeversion="1"
       is_visible="true"
       id="path-effect182"
       effect="spiro" />
    <inkscape:path-effect
       lpeversion="1"
       is_visible="true"
       id="path-effect178"
       effect="spiro" />
    <inkscape:path-effect
       hide_knots="false"
       only_selected="false"
       apply_with_radius="true"
       apply_no_radius="true"
       use_knot_distance="true"
       flexible="false"
       chamfer_steps="1"
       radius="1"
       mode="F"
       method="auto"
       unit="px"
       satellites_param="F,0,0,1,0,0.26458333,0,1 @ F,0,0,1,0,0.26458333,0,1 @ F,0,0,1,0,0.26458333,0,1 @ F,0,0,1,0,0.26458333,0,1"
       lpeversion="1"
       is_visible="true"
       id="path-effect130"
       effect="fillet_chamfer" />
  </defs>
  <sodipodi:namedview
     inkscape:window-maximized="1"
     inkscape:window-y="-8"
     inkscape:window-x="1912"
     inkscape:window-height="1017"
     inkscape:window-width="1920"
     showgrid="false"
     inkscape:document-rotation="0"
     inkscape:current-layer="layer1"
     inkscape:document-units="mm"
     inkscape:cy="87.8489"
     inkscape:cx="67.598536"
     inkscape:zoom="5.6568543"
     inkscape:pageshadow="2"
     inkscape:pageopacity="0.0"
     borderopacity="1.0"
     bordercolor="#666666"
     pagecolor="#ffffff"
     id="base" />
  <metadata
     id="metadata5">
    <rdf:RDF>
      <cc:Work
         rdf:about="">
        <dc:format>image/svg+xml</dc:format>
        <dc:type
           rdf:resource="http://purl.org/dc/dcmitype/StillImage" />
      </cc:Work>
    </rdf:RDF>
  </metadata>
  <g
     id="layer1"
     inkscape:groupmode="layer"
     inkscape:label="Ebene 1">
    <path
       id="rect65-4"
       style="fill:#e6e6e6;stroke:#000000;stroke-width:0.264583"
       d="M 14.499373,12.161015 V 23.01875 l 7.316349,2.538863 7.316867,-2.538863 7.316351,2.538863 V 14.699878 l -7.316351,-2.538863 -7.316867,2.538863 z" />
    <path
       inkscape:original-d="m 21.816171,25.557419 c 2.452314,-1.849599 4.904362,-3.699461 7.356144,-5.549589 2.451781,-1.850127 2.286707,-0.124696 3.429663,-0.187441 1.142956,-0.06275 2.568597,-1.874156 3.852499,-2.811631"
       inkscape:path-effect="#path-effect178"
       id="path176"
       d="m 21.816171,25.557419 c 0.575393,-1.513812 1.585461,-2.859584 2.878297,-3.834919 1.292836,-0.975336 2.864228,-1.577057 4.477847,-1.71467 1.14214,-0.0974 2.304514,0.03168 3.429663,-0.187441 1.611543,-0.313839 3.062183,-1.372546 3.852499,-2.811631"
       style="fill:none;stroke:#b3b3b3;stroke-width:0.265425px;stroke-linecap:butt;stroke-linejoin:miter;stroke-opacity:1" />
    <path
       id="path106"
       d="M 29.132588,12.161014 V 23.018749"
       style="fill:none;stroke:#000000;stroke-width:0.264583px;stroke-linecap:butt;stroke-linejoin:miter;stroke-opacity:1" />
    <path
       inkscape:original-d="m 14.485937,18.983854 c 2.436636,-0.209197 4.873008,-0.418659 7.309115,-0.628385 2.436107,-0.209727 2.866584,-3.395222 4.299479,-5.09323"
       inkscape:path-effect="#path-effect182"
       id="path180"
       d="m 14.485937,18.983854 c 2.38334,0.805741 5.098276,0.572331 7.309115,-0.628385 1.998222,-1.085243 3.56496,-2.941225 4.299479,-5.09323"
       style="fill:none;stroke:#b3b3b3;stroke-width:0.264583px;stroke-linecap:butt;stroke-linejoin:miter;stroke-opacity:1" />
    <path
       d="M 14.499373,12.161015 V 23.01875 l 7.316349,2.538863 7.316866,-2.538863 7.316351,2.538863 V 14.699878 l -7.316351,-2.538863 -7.316866,2.538863 z"
       style="fill:none;stroke:#000000;stroke-width:0.264583"
       id="rect65" />
    <g
       transform="translate(-14.948958,-5.8208333)"
       id="g161">
      <path
         id="path108"
         style="fill:#ffffff;stroke:#000000;stroke-width:0.219398"
         d="m 32.080831,16.140321 a 1.3990132,1.3990132 0 0 0 -1.39095,1.399094 1.3990132,1.3990132 0 0 0 0.0073,0.142695 0.13743339,0.13743339 0 0 0 0.0099,0.07328 1.3990132,1.3990132 0 0 0 0.356092,0.735328 l 0.929872,1.917164 a 0.10643311,0.10643311 0 0 0 0.191546,0 l 0.929872,-1.917164 a 1.3990132,1.3990132 0 0 0 0.35695,-0.735757 0.13740386,0.13740386 0 0 0 0.009,-0.0737 1.3990132,1.3990132 0 0 0 0.0077,-0.141838 1.3990132,1.3990132 0 0 0 -1.399094,-1.399094 1.3990132,1.3990132 0 0 0 -0.0081,0 z" />
      <circle
         style="fill:#ffffff;stroke:#000000;stroke-width:0.264583"
         id="path156"
         cx="32.088997"
         cy="17.536915"
         r="0.58704424" />
    </g>
    <path
       id="path104"
       d="M 21.815722,14.699878 V 25.557612"
       style="fill:none;stroke:#000000;stroke-width:0.264583px;stroke-linecap:butt;stroke-linejoin:miter;stroke-opacity:1" />
  </g>
</svg>
