<?xml version="1.0" encoding="UTF-8" standalone="no"?>
<svg
   xmlns:dc="http://purl.org/dc/elements/1.1/"
   xmlns:cc="http://creativecommons.org/ns#"
   xmlns:rdf="http://www.w3.org/1999/02/22-rdf-syntax-ns#"
   xmlns:svg="http://www.w3.org/2000/svg"
   xmlns="http://www.w3.org/2000/svg"
   xmlns:sodipodi="http://sodipodi.sourceforge.net/DTD/sodipodi-0.dtd"
   xmlns:inkscape="http://www.inkscape.org/namespaces/inkscape"
   width="9.3427649cm"
   height="5.3353724cm"
   viewBox="0 0 93.427649 53.353723"
   version="1.1"
   id="svg8"
   inkscape:version="1.0 (4035a4fb49, 2020-05-01)"
   sodipodi:docname="VisAQLogoNew.svg">
  <defs
     id="defs2">
    <inkscape:path-effect
       background_color="#ffffffff"
       background="true"
       hide_mask="false"
       invert="false"
       uri="#mask-powermask-path-effect177"
       lpeversion="1"
       is_visible="true"
       id="path-effect177"
       effect="powermask" />
    <inkscape:path-effect
       effect="powermask"
       id="path-effect440"
       is_visible="true"
       lpeversion="1"
       uri="#mask-powermask-path-effect440"
       invert="false"
       hide_mask="false"
       background="true"
       background_color="#ffffffff" />
    <mask
       maskUnits="userSpaceOnUse"
       id="mask-powermask-path-effect440">
      <text
         transform="scale(0.97388281,1.0268176)"
         id="text438"
         y="777.49646"
         x="171.2471"
         style="font-style:normal;font-weight:normal;font-size:105.42px;line-height:1.25;font-family:sans-serif;fill:#000000;fill-opacity:1;stroke:none;stroke-width:1.02681"
         xml:space="preserve"><tspan
           style="font-style:normal;font-variant:normal;font-weight:normal;font-stretch:normal;font-size:105.42px;font-family:'Calisto MT';-inkscape-font-specification:'Calisto MT';stroke-width:1.02681"
           y="777.49646"
           x="171.2471"
           id="tspan436"
           sodipodi:role="line">VisAQ</tspan></text>
    </mask>
    <mask
       id="mask-powermask-path-effect177"
       maskUnits="userSpaceOnUse">
      <path
         d="M 394.44321,884.17381 H 749.55558 V 1087.8257 H 394.44321 Z"
         style="fill:#ffffff;fill-opacity:1"
         id="mask-powermask-path-effect177_box" />
      <text
         transform="scale(0.9738828,1.0268176)"
         id="text175"
         y="997.80023"
         x="432.52356"
         style="font-style:normal;font-weight:normal;font-size:105.42px;line-height:1.25;font-family:sans-serif;fill:#000000;fill-opacity:1;stroke:none;stroke-width:1.02681"
         xml:space="preserve"><tspan
           style="font-style:normal;font-variant:normal;font-weight:normal;font-stretch:normal;font-size:105.42px;font-family:'Calisto MT';-inkscape-font-specification:'Calisto MT';stroke-width:1.02681"
           y="997.80023"
           x="432.52356"
           id="tspan173"
           sodipodi:role="line">VisAQ</tspan></text>
    </mask>
    <filter
       height="1.0000297"
       y="-1.4855934e-05"
       width="1.000017"
       x="-8.4837779e-06"
       id="filter197"
       style="color-interpolation-filters:sRGB"
       inkscape:collect="always">
      <feGaussianBlur
         id="feGaussianBlur199"
         stdDeviation="0.00033025809"
         inkscape:collect="always" />
    </filter>
  </defs>
  <sodipodi:namedview
     fit-margin-bottom="0"
     fit-margin-right="0"
     fit-margin-left="0"
     fit-margin-top="0"
     id="base"
     pagecolor="#ffffff"
     bordercolor="#666666"
     borderopacity="1.0"
     inkscape:pageopacity="0.0"
     inkscape:pageshadow="2"
     inkscape:zoom="2.0000001"
     inkscape:cx="284.29725"
     inkscape:cy="110.44757"
     inkscape:document-units="mm"
     inkscape:current-layer="layer1"
     inkscape:document-rotation="0"
     showgrid="false"
     units="cm"
     inkscape:window-width="1920"
     inkscape:window-height="1017"
     inkscape:window-x="1912"
     inkscape:window-y="-8"
     inkscape:window-maximized="1" />
  <metadata
     id="metadata5">
    <rdf:RDF>
      <cc:Work
         rdf:about="">
        <dc:format>image/svg+xml</dc:format>
        <dc:type
           rdf:resource="http://purl.org/dc/dcmitype/StillImage" />
        <dc:title></dc:title>
      </cc:Work>
    </rdf:RDF>
  </metadata>
  <g
     style="filter:url(#filter197)"
     transform="translate(-104.62768,-234.20223)"
     inkscape:label="Ebene 1"
     inkscape:groupmode="layer"
     id="layer1">
    <path
       inkscape:original-d="m 596.86719,885.17383 a 48.500005,50.000005 80.729609 0 0 -8.34961,0.67383 48.500005,50.000005 80.729609 0 0 -29.00781,15.40625 42,49.5 80.729609 0 0 -29.08985,-2.86133 42,49.5 80.729609 0 0 -31.60742,16.6914 43.012713,52.809577 73.423342 0 0 -29.99219,-1.79492 43.012713,52.809577 73.423342 0 0 -46.04297,50.04102 45.788629,34.121212 11.595888 0 0 -27.12695,25.88672 45.788629,34.121212 11.595888 0 0 21.88086,34.7891 28.987394,37.910831 88.500974 0 0 -5.81641,16.2382 28.987394,37.910831 88.500974 0 0 38.84766,27.8301 28.987394,37.910831 88.500974 0 0 8.98242,-1.1015 43.206395,64.215405 84.986516 0 0 19.14063,10.8339 l 193.4082,-93.41402 -2.03711,-3.46485 -2.04492,-1.78906 21.92383,-0.59375 -14.09571,16.80274 -0.13086,-2.71289 -1.44726,-3.75391 -188.48242,91.03514 a 43.206395,64.215405 84.986516 0 0 33.85937,1.6016 43.206395,64.215405 84.986516 0 0 31.57617,-10.5567 42.112501,61.034842 86.495725 0 0 57.87696,15.1329 42.112501,61.034842 86.495725 0 0 49.2832,-29.9043 46.500004,53.000005 80.729609 0 0 17.83203,-0.2247 46.500004,53.000005 80.729609 0 0 44.44727,-39.2265 46.500008,37.500003 15.553884 0 0 26.0039,-23.9258 46.500008,37.500003 15.553884 0 0 -6.45508,-29.80469 48.333105,32.409151 11.074802 0 0 8.33399,-16.6914 48.333105,32.409151 11.074802 0 0 -46.49414,-38.56446 48.333105,32.409151 11.074802 0 0 -1.85742,-0.20703 48.000008,52.500004 80.729609 0 0 -52.13867,-20.6914 48.000008,52.500004 80.729609 0 0 -21.28126,8.08203 48.500005,50.000005 80.729609 0 0 -29.89843,-9.76172 z"
       inkscape:path-effect="#path-effect177"
       mask="url(#mask-powermask-path-effect177)"
       transform="scale(0.26458333)"
       d="m 596.86719,885.17383 a 48.500005,50.000005 80.729609 0 0 -8.34961,0.67383 48.500005,50.000005 80.729609 0 0 -29.00781,15.40625 42,49.5 80.729609 0 0 -29.08985,-2.86133 42,49.5 80.729609 0 0 -31.60742,16.6914 43.012713,52.809577 73.423342 0 0 -29.99219,-1.79492 43.012713,52.809577 73.423342 0 0 -46.04297,50.04102 45.788629,34.121212 11.595888 0 0 -27.12695,25.88672 45.788629,34.121212 11.595888 0 0 21.88086,34.7891 28.987394,37.910831 88.500974 0 0 -5.81641,16.2382 28.987394,37.910831 88.500974 0 0 38.84766,27.8301 28.987394,37.910831 88.500974 0 0 8.98242,-1.1015 43.206395,64.215405 84.986516 0 0 19.14063,10.8339 l 193.4082,-93.41402 -2.03711,-3.46485 -2.04492,-1.78906 21.92383,-0.59375 -14.09571,16.80274 -0.13086,-2.71289 -1.44726,-3.75391 -188.48242,91.03514 a 43.206395,64.215405 84.986516 0 0 33.85937,1.6016 43.206395,64.215405 84.986516 0 0 31.57617,-10.5567 42.112501,61.034842 86.495725 0 0 57.87696,15.1329 42.112501,61.034842 86.495725 0 0 49.2832,-29.9043 46.500004,53.000005 80.729609 0 0 17.83203,-0.2247 46.500004,53.000005 80.729609 0 0 44.44727,-39.2265 46.500008,37.500003 15.553884 0 0 26.0039,-23.9258 46.500008,37.500003 15.553884 0 0 -6.45508,-29.80469 48.333105,32.409151 11.074802 0 0 8.33399,-16.6914 48.333105,32.409151 11.074802 0 0 -46.49414,-38.56446 48.333105,32.409151 11.074802 0 0 -1.85742,-0.20703 48.000008,52.500004 80.729609 0 0 -52.13867,-20.6914 48.000008,52.500004 80.729609 0 0 -21.28126,8.08203 48.500005,50.000005 80.729609 0 0 -29.89843,-9.76172 z"
       style="fill:#37c8ab;fill-rule:evenodd;stroke-width:0.999999"
       id="rect18-07-9" />
  </g>
</svg>
